<svg xmlns="http://www.w3.org/2000/svg" version="1.1" xmlns:xlink="http://www.w3.org/1999/xlink" xmlns:svgjs="http://svgjs.com/svgjs" width="1440" height="1000" preserveAspectRatio="none" viewBox="0 0 1440 1000"><g mask="url(&quot;#SvgjsMask1009&quot;)" fill="none"><rect width="1440" height="1000" x="0" y="0" fill="rgba(190, 243, 248, 1)"></rect><path d="M0,386.038C72.551,375.025,140.47,353.927,204.998,318.983C274.064,281.581,359.577,250.314,386.726,176.612C413.804,103.103,346.23,29.169,340.536,-48.962C334.206,-135.825,412.343,-242.245,351.651,-304.708C289.63,-368.539,178.484,-296.575,90.066,-306.738C22.005,-314.561,-36.405,-359.414,-104.878,-357.182C-187.083,-354.502,-283.896,-354.828,-337.892,-292.785C-391.885,-230.746,-377.162,-135.012,-369.5,-53.126C-363.089,15.389,-315.861,69.594,-297.77,135.987C-274.821,220.21,-316.168,331.811,-249.319,387.947C-184.358,442.497,-83.866,398.769,0,386.038" fill="#7be7f1"></path><path d="M1440 1345.2269999999999C1513.298 1339.297 1587.828 1363.724 1655.9470000000001 1336.021 1731.4270000000001 1305.325 1812.805 1259.471 1839.864 1182.612 1866.762 1106.209 1802.297 1029.732 1792.066 949.381 1781.596 867.157 1832.424 769.624 1779.187 706.092 1726.074 642.7080000000001 1619.7 680.6659999999999 1542.362 651.387 1455.509 618.506 1392.672 513.611 1300.488 524.867 1209.378 535.992 1157.516 633.857 1100.01 705.3969999999999 1044.4470000000001 774.52 967.396 844.261 972.581 932.795 977.7629999999999 1021.267 1084.933 1064.843 1125.671 1143.549 1163.391 1216.423 1131.304 1328.563 1200.368 1372.875 1269.443 1417.194 1358.1970000000001 1351.845 1440 1345.2269999999999" fill="#ffffff"></path></g><defs><mask id="SvgjsMask1009"><rect width="1440" height="1000" fill="#ffffff"></rect></mask></defs></svg>