<svg xmlns="http://www.w3.org/2000/svg" version="1.1" xmlns:xlink="http://www.w3.org/1999/xlink" xmlns:svgjs="http://svgjs.com/svgjs" width="1440" height="560" preserveAspectRatio="none" viewBox="0 0 1440 560"><g mask="url(&quot;#SvgjsMask1239&quot;)" fill="none"><rect width="1440" height="560" x="0" y="0" fill="url(#SvgjsLinearGradient1240)"></rect><path d="M87.39 348.6L103.13 348.6L103.13 364.34L87.39 364.34z" stroke="#037b0b"></path><path d="M1176.99 98.18L1229.35 98.18L1229.35 150.54L1176.99 150.54z" fill="#037b0b"></path><path d="M194.29 427.27a51.86 51.86 0 1 0 86.52 57.19z" fill="#e73635"></path><path d="M969.04 13.01a43.87 43.87 0 1 0-36.92 79.59z" fill="#d3b714"></path><path d="M609.85 80.08L643.23 80.08L643.23 90.17L609.85 90.17z" fill="#d3b714"></path><path d="M985.2 124.14L1034.14 124.14L1034.14 170.89L985.2 170.89z" fill="#037b0b"></path><path d="M309.84 530.21 a26.85 26.85 0 1 0 53.7 0 a26.85 26.85 0 1 0 -53.7 0z" stroke="#037b0b"></path><path d="M911.19 144.62L966.99 144.62L966.99 147.95L911.19 147.95z" fill="#037b0b"></path><path d="M1039.61 292.7 a10.88 10.88 0 1 0 21.76 0 a10.88 10.88 0 1 0 -21.76 0z" fill="#037b0b"></path><path d="M841.42 550.97L873.7 550.97L873.7 583.25L841.42 583.25z" stroke="#d3b714"></path><path d="M1101.58 152.62L1127.83 152.62L1127.83 177.23L1101.58 177.23z" fill="#037b0b"></path><path d="M172.25 456.1L184.57 456.1L184.57 468.42L172.25 468.42z" stroke="#d3b714"></path><path d="M535.71 337.51L578.72 337.51L578.72 380.52L535.71 380.52z" stroke="#037b0b"></path><path d="M81.35 1.2L117 1.2L117 44.37L81.35 44.37z" stroke="#037b0b"></path><path d="M607.81 394.66L629.88 394.66L629.88 426.88L607.81 426.88z" fill="#037b0b"></path><path d="M1234.28 46.22L1257.38 46.22L1257.38 99.33L1234.28 99.33z" stroke="#d3b714"></path><path d="M959.04 307.54L964.4 307.54L964.4 312.9L959.04 312.9z" stroke="#d3b714"></path><path d="M1410.1 113.65L1445.88 113.65L1445.88 129.5L1410.1 129.5z" fill="#d3b714"></path><path d="M1087.53 208.74 a9.08 9.08 0 1 0 18.16 0 a9.08 9.08 0 1 0 -18.16 0z" fill="#037b0b"></path><path d="M1263.72 127.02L1284.99 127.02L1284.99 148.29L1263.72 148.29z" stroke="#e73635"></path><path d="M708.81 333.54 a51.91 51.91 0 1 0 103.82 0 a51.91 51.91 0 1 0 -103.82 0z" stroke="#e73635"></path><path d="M849.11 462.36L897.74 462.36L897.74 510.99L849.11 510.99z" stroke="#d3b714"></path><path d="M437.51 167.67L465.45 167.67L465.45 196.73L437.51 196.73z" stroke="#d3b714"></path><path d="M1289.14 179.9a4.54 4.54 0 1 0-5.7-7.07z" fill="#d3b714"></path><path d="M655.9 365.37L708.6 365.37L708.6 401.76L655.9 401.76z" stroke="#d3b714"></path><path d="M654.68 408.25a46.62 46.62 0 1 0-91.37-18.54z" stroke="#037b0b"></path><path d="M1013.17 416.08L1043.69 416.08L1043.69 437.94L1013.17 437.94z" fill="#037b0b"></path><path d="M465.55 53.49L492.81 53.49L492.81 80.75L465.55 80.75z" fill="#037b0b"></path><path d="M731.49 222.67L779.04 222.67L779.04 235.66L731.49 235.66z" stroke="#d3b714"></path><path d="M428.24 257.58a37.88 37.88 0 1 0 3.18 75.69z" fill="#037b0b"></path><path d="M711.04 91.74L751.25 91.74L751.25 131.95L711.04 131.95z" stroke="#d3b714"></path><path d="M727.26 544.04a55.71 55.71 0 1 0 87.3-69.23z" stroke="#e73635"></path><path d="M519.42 135.4L536.54 135.4L536.54 152.52L519.42 152.52z" stroke="#d3b714"></path></g><defs><mask id="SvgjsMask1239"><rect width="1440" height="560" fill="#ffffff"></rect></mask><linearGradient x1="15.28%" y1="-39.29%" x2="84.72%" y2="139.29%" gradientUnits="userSpaceOnUse" id="SvgjsLinearGradient1240"><stop stop-color="rgba(8, 68, 130, 1)" offset="0"></stop><stop stop-color="#00459e" offset="1"></stop></linearGradient></defs></svg>