<svg xmlns="http://www.w3.org/2000/svg" version="1.1" xmlns:xlink="http://www.w3.org/1999/xlink" xmlns:svgjs="http://svgjs.com/svgjs" width="1440" height="560" preserveAspectRatio="none" viewBox="0 0 1440 560"><g mask="url(&quot;#SvgjsMask1133&quot;)" fill="none"><rect width="1440" height="560" x="0" y="0" fill="url(#SvgjsLinearGradient1134)"></rect><path d="M392.42 584.73C501.95 580.65 590.46 405.11 792.25 404.85 994.04 404.59 992.16 474.85 1192.07 474.85 1391.99 474.85 1490.42 405.11 1591.9 404.85" stroke="rgba(51,121,194,0.58)" stroke-width="2"></path><path d="M121.55 616.01C280.75 577.54 330.86 157.34 580.95 148.97 831.04 140.6 810.65 218.97 1040.35 218.97 1270.05 218.97 1383.57 149.17 1499.75 148.97" stroke="rgba(51,121,194,0.58)" stroke-width="2"></path><path d="M421.53 638.76C577.62 592.23 612.33 160.02 851.15 149 1089.97 137.98 1065.96 219 1280.78 219 1495.59 219 1601.58 149.23 1710.4 149" stroke="rgba(51,121,194,0.58)" stroke-width="2"></path><path d="M356.55 590.18C518.53 578.22 612.91 269.75 916.28 260.35 1219.65 250.95 1331.77 121.41 1476.01 120.35" stroke="rgba(51,121,194,0.58)" stroke-width="2"></path><path d="M85.29 618.3C236.15 595.44 310.29 239.16 560.35 235.16 810.42 231.16 797.88 305.16 1035.42 305.16 1272.95 305.16 1390.43 235.35 1510.48 235.16" stroke="rgba(51,121,194,0.58)" stroke-width="2"></path></g><defs><mask id="SvgjsMask1133"><rect width="1440" height="560" fill="#ffffff"></rect></mask><linearGradient x1="15.28%" y1="-39.29%" x2="84.72%" y2="139.29%" gradientUnits="userSpaceOnUse" id="SvgjsLinearGradient1134"><stop stop-color="rgba(255, 255, 255, 1)" offset="0"></stop><stop stop-color="rgba(44, 135, 252, 1)" offset="1"></stop></linearGradient></defs></svg>